<?xml version="1.0" encoding="utf-8"?>
<!-- Generator: Adobe Illustrator 16.0.0, SVG Export Plug-In . SVG Version: 6.00 Build 0)  -->
<!DOCTYPE svg PUBLIC "-//W3C//DTD SVG 1.1//EN" "http://www.w3.org/Graphics/SVG/1.1/DTD/svg11.dtd">
<svg version="1.1" id="Layer_1" xmlns="http://www.w3.org/2000/svg" xmlns:xlink="http://www.w3.org/1999/xlink" x="0px" y="0px"
	 width="26px" height="31px" viewBox="0 0 26 31" enable-background="new 0 0 26 31" xml:space="preserve">
<g>
	<g>
		<g>
			<polygon fill="#FFFFFF" points="5.252,29.005 8.072,29.005 8.072,29.868 0.3,29.868 0.3,29.005 2.943,29.005 2.943,8.471 
				0.3,8.471 0.3,7.487 5.252,7.487 			"/>
		</g>
		<path fill="#FFFFFF" d="M8.31,19.283c-3.519-9.214,6.987-9.864,5.38-18.492C19.685,9.078,9.055,12.61,8.31,19.283L8.31,19.283z"/>
		<path fill="#FFFFFF" d="M16.481,7.476c-1.681,5.878-9.091,9.477-6.926,16.892c0.487-4.666,5.352-8.807,7.2-12.66v17.299h-3.062
			v0.862h11.146v-0.862h-3.21V8.471h3.21L24.82,7.476H16.481z"/>
	</g>
</g>
</svg>
