<?xml version="1.0" encoding="utf-8"?>
<!-- Generator: Adobe Illustrator 16.0.0, SVG Export Plug-In . SVG Version: 6.00 Build 0)  -->
<!DOCTYPE svg PUBLIC "-//W3C//DTD SVG 1.1//EN" "http://www.w3.org/Graphics/SVG/1.1/DTD/svg11.dtd">
<svg version="1.1" id="Layer_1" xmlns="http://www.w3.org/2000/svg" xmlns:xlink="http://www.w3.org/1999/xlink" x="0px" y="0px"
	 width="205.5px" height="77.5px" viewBox="0 0 205.5 77.5" enable-background="new 0 0 205.5 77.5" xml:space="preserve">
<g>
	<g>
		<g>
			<polyline fill="#FFFFFF" points="12.381,72.512 19.43,72.512 19.43,74.67 0,74.67 0,72.512 6.609,72.512 6.609,21.177 0,21.177 
				0,18.718 12.381,18.718 12.381,72.512 			"/>
		</g>
		<path fill="#ECAB20" d="M20.024,48.208c-8.797-23.036,17.467-24.66,13.448-46.229C48.462,22.696,21.888,31.525,20.024,48.208"/>
		<path fill="#FFFFFF" d="M40.453,18.689C36.251,33.385,17.726,42.38,23.139,60.917c1.218-11.664,13.379-22.017,18.002-31.649
			v43.245h-7.655v2.158h27.866v-2.158h-8.026V21.177h8.026l-0.051-2.488H40.453z"/>
	</g>
	<g>
		<path fill="#FFFFFF" d="M82.743,29.667H82.66l-4.539-6.797V33.23h-2.507V18.725h2.714l4.415,6.859l4.414-6.859h2.714V33.23h-2.548
			V22.828L82.743,29.667z"/>
		<path fill="#FFFFFF" d="M96.293,18.725V33.23h-2.548V18.725H96.293z"/>
		<path fill="#FFFFFF" d="M110.301,18.725h2.508V33.23h-2.135l-7.999-10.319V33.23h-2.507V18.725h2.362l7.771,10.029V18.725z"/>
		<path fill="#FFFFFF" d="M126.67,18.725h2.506V33.23h-2.134l-7.999-10.319V33.23h-2.508V18.725h2.363l7.771,10.029V18.725z"/>
		<path fill="#FFFFFF" d="M143.66,21.004h-8.206v3.772h7.273v2.279h-7.273v3.895h8.31v2.28h-10.859V18.725h10.756V21.004z"/>
		<path fill="#FFFFFF" d="M152.383,24.817c3.066,0.746,4.662,1.845,4.662,4.268c0,2.736-2.135,4.353-5.181,4.353
			c-2.218,0-4.311-0.768-6.051-2.321l1.533-1.823c1.388,1.202,2.776,1.885,4.579,1.885c1.575,0,2.569-0.724,2.569-1.843
			c0-1.058-0.579-1.617-3.273-2.238c-3.087-0.746-4.829-1.658-4.829-4.351c0-2.528,2.073-4.228,4.953-4.228
			c2.114,0,3.793,0.643,5.264,1.823l-1.368,1.928c-1.306-0.974-2.61-1.494-3.937-1.494c-1.492,0-2.362,0.768-2.362,1.742
			C148.942,23.657,149.604,24.154,152.383,24.817z"/>
		<path fill="#FFFFFF" d="M166.97,33.479c-4.456,0-7.564-3.378-7.564-7.48c0-4.104,3.149-7.523,7.605-7.523
			c4.455,0,7.563,3.379,7.563,7.482C174.574,30.059,171.425,33.479,166.97,33.479z M166.97,20.817c-2.881,0-4.891,2.301-4.891,5.141
			c0,2.837,2.051,5.179,4.932,5.179c2.88,0,4.891-2.3,4.891-5.137C171.901,23.16,169.85,20.817,166.97,20.817z"/>
		<path fill="#FFFFFF" d="M183.004,33.23h-2.569V21.087h-4.6v-2.363h11.77v2.363h-4.601V33.23z"/>
		<path fill="#FFFFFF" d="M202.315,33.23h-2.694l-1.473-3.502h-6.858l-1.492,3.502h-2.611l6.383-14.609h2.363L202.315,33.23z
			 M194.709,21.668l-2.486,5.801h4.994L194.709,21.668z"/>
		<path fill="#FFFFFF" d="M78.163,47.836v6.113h-2.549V39.444h2.549v6.031h6.921v-6.031h2.549V53.95h-2.549v-6.113H78.163z"/>
		<path fill="#FFFFFF" d="M94.056,39.444V53.95h-2.549V39.444H94.056z"/>
		<path fill="#FFFFFF" d="M103.524,45.538c3.067,0.746,4.663,1.844,4.663,4.27c0,2.734-2.135,4.35-5.182,4.35
			c-2.217,0-4.31-0.768-6.05-2.32l1.534-1.824c1.388,1.203,2.776,1.887,4.579,1.887c1.575,0,2.57-0.725,2.57-1.844
			c0-1.059-0.581-1.617-3.274-2.238c-3.088-0.746-4.829-1.658-4.829-4.351c0-2.529,2.072-4.229,4.953-4.229
			c2.113,0,3.793,0.644,5.264,1.824l-1.367,1.926c-1.306-0.974-2.611-1.491-3.938-1.491c-1.492,0-2.362,0.768-2.362,1.741
			C100.085,44.376,100.748,44.874,103.524,45.538z"/>
		<path fill="#FFFFFF" d="M117.016,53.95h-2.57V41.808h-4.6v-2.363h11.77v2.363h-4.6V53.95z"/>
		<path fill="#FFFFFF" d="M130.439,54.2c-4.453,0-7.562-3.379-7.562-7.482c0-4.103,3.149-7.521,7.604-7.521
			c4.456,0,7.563,3.377,7.563,7.48C138.045,50.78,134.896,54.2,130.439,54.2z M130.439,41.538c-2.881,0-4.891,2.299-4.891,5.138
			c0,2.84,2.053,5.182,4.933,5.182c2.881,0,4.891-2.301,4.891-5.141C135.372,43.879,133.32,41.538,130.439,41.538z"/>
		<path fill="#FFFFFF" d="M150.436,53.95l-3.565-5.055h-3.19v5.055h-2.549V39.444h6.466c3.336,0,5.388,1.762,5.388,4.602
			c0,2.402-1.43,3.855-3.461,4.414l3.916,5.49H150.436z M147.39,41.766h-3.71v4.87h3.73c1.823,0,2.983-0.953,2.983-2.445
			C150.394,42.595,149.275,41.766,147.39,41.766z"/>
		<path fill="#FFFFFF" d="M158.805,39.444V53.95h-2.548V39.444H158.805z"/>
		<path fill="#FFFFFF" d="M169.11,54.2c-4.227,0-7.377-3.295-7.377-7.482c0-4.144,3.088-7.521,7.481-7.521
			c2.673,0,4.289,0.933,5.678,2.258l-1.638,1.887c-1.16-1.077-2.403-1.803-4.061-1.803c-2.777,0-4.787,2.279-4.787,5.138
			c0,2.861,2.01,5.182,4.787,5.182c1.782,0,2.922-0.727,4.165-1.887l1.637,1.658C173.483,53.206,171.825,54.2,169.11,54.2z"/>
		<path fill="#FFFFFF" d="M191.551,53.95h-2.693l-1.472-3.5h-6.858l-1.492,3.5h-2.611l6.383-14.609h2.362L191.551,53.95z
			 M183.946,42.387l-2.487,5.803h4.994L183.946,42.387z"/>
		<path fill="#FFFFFF" d="M194.037,39.444h2.548v12.185h7.626v2.32h-10.174V39.444z"/>
		<path fill="#FFFFFF" d="M81.21,66.258c3.066,0.746,4.662,1.844,4.662,4.27c0,2.734-2.135,4.352-5.181,4.352
			c-2.218,0-4.31-0.768-6.051-2.322l1.533-1.822c1.389,1.201,2.777,1.885,4.58,1.885c1.575,0,2.57-0.725,2.57-1.844
			c0-1.057-0.58-1.617-3.274-2.238c-3.088-0.746-4.829-1.658-4.829-4.352c0-2.527,2.072-4.229,4.953-4.229
			c2.114,0,3.792,0.643,5.264,1.824l-1.368,1.928c-1.306-0.975-2.611-1.492-3.938-1.492c-1.492,0-2.362,0.766-2.362,1.74
			C77.77,65.098,78.433,65.596,81.21,66.258z"/>
		<path fill="#FFFFFF" d="M95.197,74.918c-4.455,0-7.563-3.377-7.563-7.479c0-4.104,3.149-7.521,7.604-7.521
			c4.456,0,7.564,3.377,7.564,7.479C102.803,71.5,99.652,74.918,95.197,74.918z M95.197,62.258c-2.88,0-4.89,2.301-4.89,5.139
			c0,2.84,2.051,5.182,4.932,5.182s4.891-2.301,4.891-5.139C100.129,64.6,98.078,62.258,95.197,62.258z"/>
		<path fill="#FFFFFF" d="M112.318,74.918c-4.227,0-7.377-3.293-7.377-7.479c0-4.145,3.088-7.521,7.481-7.521
			c2.673,0,4.288,0.932,5.679,2.258l-1.639,1.885c-1.16-1.078-2.403-1.803-4.061-1.803c-2.777,0-4.787,2.279-4.787,5.139
			c0,2.861,2.01,5.182,4.787,5.182c1.782,0,2.922-0.725,4.164-1.885l1.638,1.656C116.691,73.924,115.033,74.918,112.318,74.918z"/>
		<path fill="#FFFFFF" d="M123.57,60.167V74.67h-2.549V60.167H123.57z"/>
		<path fill="#FFFFFF" d="M138.199,62.446h-8.206v3.771h7.273v2.279h-7.273v3.895h8.31v2.279h-10.859V60.167h10.756V62.446z"/>
		<path fill="#FFFFFF" d="M147.46,74.67h-2.57V62.528h-4.6v-2.361h11.771v2.361h-4.601V74.67z"/>
		<path fill="#FFFFFF" d="M161.591,74.67h-2.57v-5.717l-5.76-8.787h3.004l4.062,6.424l4.104-6.424h2.922l-5.761,8.723V74.67z"/>
	</g>
</g>
</svg>
